<?xml version="1.0" encoding="UTF-8"?>
<!DOCTYPE svg PUBLIC "-//W3C//DTD SVG 1.1//EN" "http://www.w3.org/Graphics/SVG/1.1/DTD/svg11.dtd">
<!-- Creator: CorelDRAW -->
<svg xmlns="http://www.w3.org/2000/svg" xml:space="preserve" width="342px" height="100px" version="1.1" style="shape-rendering:geometricPrecision; text-rendering:geometricPrecision; image-rendering:optimizeQuality; fill-rule:evenodd; clip-rule:evenodd"
viewBox="0 0 340.32 99.47"
 xmlns:xlink="http://www.w3.org/1999/xlink"
 xmlns:xodm="http://www.corel.com/coreldraw/odm/2003">
 <defs>
  <style type="text/css">
   <![CDATA[
    .fil1 {fill:#030637}
    .fil3 {fill:#999999}
    .fil2 {fill:url(#id0)}
    .fil0 {fill:url(#id1)}
   ]]>
  </style>
  <linearGradient id="id0" gradientUnits="userSpaceOnUse" x1="147.25" y1="1.2" x2="127.6" y2="26.54">
   <stop offset="0" style="stop-opacity:1; stop-color:#720455"/>
   <stop offset="1" style="stop-opacity:1; stop-color:#3C0753"/>
  </linearGradient>
  <linearGradient id="id1" gradientUnits="userSpaceOnUse" xlink:href="#id0" x1="146.99" y1="75.01" x2="128.83" y2="47.8">
  </linearGradient>
 </defs>
 <g id="Camada_x0020_1">
  <metadata id="CorelCorpID_0Corel-Layer"/>
  <path class="fil0" d="M136.28 75.01l18.73 0c0.65,0 1.2,-0.34 1.49,-0.91 0.3,-0.58 0.25,-1.22 -0.14,-1.74l-21.36 -29.29c-0.33,-0.44 -0.8,-0.68 -1.35,-0.68 -0.55,0 -1.02,0.24 -1.35,0.68l-9.41 12.84c-0.44,0.6 -0.44,1.38 0,1.98l12.04 16.44c0.33,0.44 0.8,0.68 1.35,0.68z"/>
  <path class="fil1" d="M103.39 75.01l-18.74 0c-0.64,0 -1.2,-0.34 -1.49,-0.91 -0.29,-0.58 -0.24,-1.22 0.14,-1.74l24.32 -33.34c0.44,-0.6 0.44,-1.38 0,-1.97l-24.31 -33.19c-0.38,-0.52 -0.43,-1.17 -0.14,-1.75 0.29,-0.57 0.84,-0.91 1.49,-0.91l18.94 0c0.55,0 1.02,0.24 1.34,0.69l25.66 35.16c0.44,0.59 0.44,1.37 0,1.97l-25.86 35.31c-0.33,0.44 -0.8,0.68 -1.35,0.68z"/>
  <path class="fil2" d="M122.88 18.11l11.84 -16.22c0.33,-0.45 0.8,-0.69 1.35,-0.69l18.94 0c0.64,0 1.2,0.34 1.49,0.91 0.29,0.58 0.24,1.23 -0.14,1.75l-21.35 29.14c-0.33,0.45 -0.8,0.69 -1.35,0.68 -0.55,0 -1.03,-0.24 -1.35,-0.68l-9.43 -12.92c-0.43,-0.6 -0.43,-1.37 0,-1.97z"/>
  <path class="fil1" d="M182.89 75.01l-15.73 0c-0.92,0 -1.67,-0.75 -1.67,-1.67l0 -70.47c0,-0.92 0.75,-1.67 1.67,-1.67l15.73 0c0.92,0 1.67,0.75 1.67,1.67l0 70.47c0,0.92 -0.75,1.67 -1.67,1.67z"/>
  <path class="fil1" d="M229.24 76.21c-22.13,0 -38.52,-15.86 -38.52,-38.11 0,-22.24 16.39,-38.1 38.52,-38.1 22.09,0 38.42,15.92 38.42,38.1 0,22.19 -16.33,38.11 -38.42,38.11zm0 -17.41c11.93,0 18.92,-9.29 18.92,-20.7 0,-11.45 -6.94,-20.69 -18.92,-20.69 -12.03,0 -19.03,9.17 -19.03,20.69 0,11.48 7.05,20.7 19.03,20.7z"/>
  <path class="fil1" d="M292.89 39.18l0 34.16c0,0.92 -0.76,1.67 -1.68,1.67l-15.73 0c-0.92,0 -1.67,-0.75 -1.67,-1.67l0 -70.47c0,-0.92 0.75,-1.67 1.67,-1.67l15.92 0c0.55,0 1.02,0.24 1.35,0.68l25.48 34.55c0.44,0.6 1.17,0.83 1.87,0.6 0.69,-0.23 1.15,-0.85 1.15,-1.59l0 -32.57c0,-0.92 0.75,-1.67 1.67,-1.67l15.73 0c0.92,0 1.67,0.75 1.67,1.67l0 70.47c0,0.92 -0.75,1.67 -1.67,1.67l-14.98 0c-0.55,0 -1.03,-0.24 -1.35,-0.68l-26.42 -36.13c-0.43,-0.6 -1.16,-0.84 -1.86,-0.61 -0.7,0.23 -1.15,0.86 -1.15,1.59z"/>
  <path class="fil1" d="M50.69 63.23l-24.53 0c-0.71,0 -1.31,0.42 -1.56,1.09l-3.57 9.6c-0.25,0.67 -0.85,1.09 -1.57,1.09l-17.78 0c-0.57,0 -1.06,-0.26 -1.38,-0.72 -0.32,-0.47 -0.39,-1.02 -0.18,-1.55l27.15 -70.47c0.25,-0.66 0.85,-1.07 1.56,-1.07l19.2 0c0.7,0 1.3,0.41 1.55,1.07l27.16 70.47c0.2,0.53 0.14,1.08 -0.18,1.55 -0.33,0.46 -0.81,0.72 -1.38,0.72l-17.79 0c-0.71,0 -1.32,-0.42 -1.56,-1.09l-3.57 -9.6c-0.25,-0.67 -0.86,-1.09 -1.57,-1.09zm-5.28 -19.54l-5.41 -14.94c-0.25,-0.68 -0.86,-1.11 -1.57,-1.11 -0.72,0 -1.33,0.43 -1.57,1.11l-5.42 14.94c-0.19,0.52 -0.12,1.06 0.21,1.52 0.32,0.46 0.8,0.72 1.36,0.72l10.83 0c0.56,0 1.05,-0.26 1.37,-0.72 0.32,-0.46 0.39,-1 0.2,-1.52z"/>
  <path class="fil3" d="M52.53 88.16l-4.43 0 -5.68 0 0 1.21 4.41 0 0 9.94 1.27 0 0 -9.94 4.43 0 0 -1.21zm19.08 9.92l0 -3.76 4.7 0 0 -1.21 -4.7 0 0 -3.74 7.29 0 0 -1.21 -7.29 0 -1.28 0 0 11.15 0.05 0 8.6 0 0 -1.23 -7.37 0zm30.12 1.39c2.37,0 4.15,-1.22 4.95,-2.82l-1.08 -0.63c-0.61,1.34 -2.02,2.22 -3.84,2.22 -2.76,0 -4.54,-1.99 -4.54,-4.51 0,-2.53 1.74,-4.52 4.49,-4.52 1.79,0 3.2,0.89 3.81,2.23l1.08 -0.62c-0.79,-1.61 -2.58,-2.82 -4.92,-2.82 -3.47,0 -5.74,2.51 -5.74,5.73 0,3.22 2.31,5.74 5.79,5.74zm31.69 -11.31l0 9.09 -7.45 -9.09 -1.15 0 0 11.15 1.28 0 0 -9.08 7.47 9.08 1.13 0 0 -11.15 -1.28 0zm25.45 11.31c3.44,0 5.86,-2.57 5.86,-5.74 0,-3.17 -2.42,-5.73 -5.86,-5.73 -3.45,0 -5.88,2.56 -5.88,5.73 0,3.17 2.43,5.74 5.88,5.74zm0 -1.23c-2.75,0 -4.6,-1.96 -4.6,-4.51 0,-2.55 1.85,-4.52 4.6,-4.52 2.74,0 4.59,1.97 4.59,4.52 0,2.55 -1.85,4.51 -4.59,4.51zm25.42 -0.16l0 -9.92 -1.27 0 0 11.15 0.52 0 7.84 0 0 -1.23 -7.09 0zm29.45 1.39c3.44,0 5.86,-2.57 5.86,-5.74 0,-3.17 -2.42,-5.73 -5.86,-5.73 -3.46,0 -5.88,2.56 -5.88,5.73 0,3.17 2.42,5.74 5.88,5.74zm0 -1.23c-2.76,0 -4.6,-1.96 -4.6,-4.51 0,-2.55 1.84,-4.52 4.6,-4.52 2.74,0 4.59,1.97 4.59,4.52 0,2.55 -1.85,4.51 -4.59,4.51zm29.7 -4.8l0 1.17 3.6 0 0 2.15c-0.95,1.02 -2.29,1.48 -3.77,1.48 -3.01,0 -4.78,-1.96 -4.78,-4.49 0,-2.55 1.78,-4.54 4.64,-4.54 1.86,0 3.23,0.87 3.85,2.23l1.08 -0.62c-0.84,-1.71 -2.66,-2.82 -4.98,-2.82 -3.59,0 -5.87,2.59 -5.87,5.78 0,3.09 2.22,5.69 6.07,5.69 1.96,0 3.64,-0.69 4.94,-2.08l0 -2.78 0 -1.17 -4.78 0zm23.22 -5.28l0 11.15 1.28 0 0 -11.15 -1.28 0zm25.28 0l-1.15 0 -5.19 11.03 0 0.12 1.32 0 1.21 -2.62 6.49 0 1.21 2.62 1.32 0 0 -0.12 -5.21 -11.03zm-3.25 7.31l2.68 -5.77 2.67 5.77 -5.35 0z"/>
 </g>
</svg>
