<?xml version="1.0" encoding="UTF-8"?>
<!DOCTYPE svg PUBLIC "-//W3C//DTD SVG 1.1//EN" "http://www.w3.org/Graphics/SVG/1.1/DTD/svg11.dtd">
<!-- Creator: CorelDRAW -->
<svg xmlns="http://www.w3.org/2000/svg" xml:space="preserve" width="28.9686mm" height="8.4666mm" version="1.1" style="shape-rendering:geometricPrecision; text-rendering:geometricPrecision; image-rendering:optimizeQuality; fill-rule:evenodd; clip-rule:evenodd"
viewBox="0 0 2896.86 846.66"
 xmlns:xlink="http://www.w3.org/1999/xlink"
 xmlns:xodm="http://www.corel.com/coreldraw/odm/2003">
 <defs>
  <style type="text/css">
   <![CDATA[
    .fil0 {fill:white}
   ]]>
  </style>
 </defs>
 <g id="Camada_x0020_1">
  <metadata id="CorelCorpID_0Corel-Layer"/>
  <g id="_1971810684272">
   <path class="fil0" d="M1152.2 638.5l159.48 0c5.49,0 10.19,-2.88 12.68,-7.78 2.48,-4.89 2.04,-10.39 -1.19,-14.82l-181.88 -249.27c-2.76,-3.78 -6.79,-5.83 -11.47,-5.84 -4.69,0 -8.72,2.04 -11.49,5.82l-80.1 109.34c-3.72,5.09 -3.72,11.72 0,16.81l102.5 139.92c2.76,3.78 6.79,5.82 11.47,5.82z"/>
   <path class="fil0" d="M872.22 638.5l-159.48 0c-5.49,0 -10.2,-2.88 -12.68,-7.78 -2.49,-4.89 -2.05,-10.39 1.19,-14.82l207.04 -283.77c3.71,-5.08 3.7,-11.7 -0.02,-16.78l-206.94 -282.52c-3.25,-4.43 -3.7,-9.93 -1.21,-14.83 2.48,-4.9 7.19,-7.79 12.68,-7.79l161.19 0c4.69,0 8.72,2.05 11.49,5.84l218.38 299.29c3.71,5.08 3.7,11.7 -0.02,16.78l-220.15 300.56c-2.76,3.78 -6.79,5.82 -11.47,5.82z"/>
   <path class="fil0" d="M1038.17 154.16l100.77 -138.11c2.77,-3.79 6.8,-5.84 11.49,-5.84l161.19 0c5.49,0 10.2,2.89 12.68,7.79 2.48,4.9 2.03,10.4 -1.21,14.83l-181.72 248.08c-2.77,3.78 -6.8,5.82 -11.49,5.82 -4.68,-0.01 -8.71,-2.06 -11.47,-5.84l-80.24 -109.97c-3.7,-5.08 -3.7,-11.69 0,-16.76z"/>
   <path class="fil0" d="M1548.97 638.5l-133.94 0c-7.83,0 -14.22,-6.39 -14.22,-14.22l0 -599.85c0,-7.83 6.39,-14.22 14.22,-14.22l133.94 0c7.83,0 14.22,6.39 14.22,14.22l0 599.85c0,7.83 -6.39,14.22 -14.22,14.22z"/>
   <path class="fil0" d="M1943.47 648.7c-188.34,0 -327.89,-134.98 -327.89,-324.34 0,-189.37 139.55,-324.36 327.89,-324.36 188.02,0 327.02,135.54 327.02,324.36 0,188.8 -139,324.34 -327.02,324.34zm0 -148.18c101.56,0 161.09,-79.11 161.09,-176.16 0,-97.49 -59.12,-176.17 -161.09,-176.17 -102.35,0 -161.96,78.07 -161.96,176.17 0,97.66 60.03,176.16 161.96,176.16z"/>
   <path class="fil0" d="M2485.25 333.51l0 290.77c0,7.83 -6.39,14.22 -14.22,14.22l-133.94 0c-7.84,0 -14.23,-6.39 -14.23,-14.22l0 -599.85c0,-7.83 6.39,-14.22 14.23,-14.22l135.53 0c4.67,0 8.68,2.03 11.45,5.78l216.91 294.14c3.71,5.03 9.96,7.03 15.89,5.08 5.94,-1.96 9.78,-7.27 9.78,-13.51l0 -277.27c0,-7.83 6.39,-14.22 14.22,-14.22l133.94 0c7.84,0 14.23,6.39 14.23,14.22l0 599.85c0,7.83 -6.39,14.22 -14.23,14.22l-127.55 0c-4.68,0 -8.71,-2.05 -11.48,-5.83l-224.83 -307.55c-3.7,-5.05 -9.95,-7.07 -15.9,-5.13 -5.94,1.95 -9.8,7.26 -9.8,13.52z"/>
   <path class="fil0" d="M423.65 538.22l-208.76 0c-6.06,0 -11.22,3.59 -13.33,9.27l-30.38 81.74c-2.11,5.68 -7.27,9.27 -13.33,9.27l-151.41 0c-4.83,0 -8.99,-2.19 -11.72,-6.17 -2.74,-3.99 -3.28,-8.65 -1.55,-13.16l231.13 -599.85c2.16,-5.6 7.27,-9.11 13.27,-9.11l163.4 0c6,0 11.11,3.51 13.27,9.11l231.13 599.85c1.74,4.51 1.19,9.17 -1.54,13.16 -2.74,3.98 -6.89,6.17 -11.73,6.17l-151.41 0c-6.05,0 -11.21,-3.59 -13.32,-9.27l-30.39 -81.74c-2.11,-5.68 -7.27,-9.27 -13.33,-9.27zm-44.93 -166.37l-46.08 -127.17c-2.08,-5.73 -7.27,-9.38 -13.37,-9.38 -6.1,0 -11.29,3.65 -13.37,9.38l-46.08 127.17c-1.63,4.5 -1.02,9.1 1.72,13.01 2.75,3.92 6.86,6.06 11.65,6.06l92.16 0c4.79,0 8.9,-2.14 11.65,-6.06 2.74,-3.91 3.35,-8.51 1.72,-13.01z"/>
   <path class="fil0" d="M439.32 750.39l-37.7 0 -48.4 0 0 10.3 37.56 0 0 84.61 10.84 0 0 -84.61 37.7 0 0 -10.3zm162.4 84.47l0 -32 40 0 0 -10.3 -40 0 0 -31.87 62.1 0 0 -10.3 -62.1 0 -10.85 0 0 94.91 0.41 0 73.22 0 0 -10.44 -62.78 0zm256.37 11.8c20.2,0 35.39,-10.31 42.16,-24l-9.21 -5.29c-5.16,11.39 -17.23,18.85 -32.68,18.85 -23.46,0 -38.64,-16.95 -38.64,-38.37 0,-21.56 14.78,-38.51 38.23,-38.51 15.19,0 27.25,7.59 32.41,18.98l9.22 -5.29c-6.78,-13.69 -21.97,-24 -41.9,-24 -29.56,0 -48.81,21.43 -48.81,48.82 0,27.39 19.66,48.81 49.22,48.81zm269.79 -96.27l0 77.42 -63.46 -77.42 -9.76 0 0 94.91 10.85 0 0 -77.28 63.59 77.28 9.62 0 0 -94.91 -10.84 0zm216.63 96.27c29.29,0 49.9,-21.83 49.9,-48.81 0,-26.99 -20.61,-48.82 -49.9,-48.82 -29.42,0 -50.03,21.83 -50.03,48.82 0,26.98 20.61,48.81 50.03,48.81zm0 -10.44c-23.45,0 -39.18,-16.68 -39.18,-38.37 0,-21.7 15.73,-38.51 39.18,-38.51 23.33,0 39.05,16.81 39.05,38.51 0,21.69 -15.72,38.37 -39.05,38.37zm216.37 -1.36l0 -84.47 -10.85 0 0 94.91 4.48 0 66.71 0 0 -10.44 -60.34 0zm250.68 11.8c29.28,0 49.89,-21.83 49.89,-48.81 0,-26.99 -20.61,-48.82 -49.89,-48.82 -29.43,0 -50.04,21.83 -50.04,48.82 0,26.98 20.61,48.81 50.04,48.81zm0 -10.44c-23.46,0 -39.19,-16.68 -39.19,-38.37 0,-21.7 15.73,-38.51 39.19,-38.51 23.32,0 39.04,16.81 39.04,38.51 0,21.69 -15.72,38.37 -39.04,38.37zm252.83 -40.82l0 9.9 30.65 0 0 18.31c-8.14,8.68 -19.53,12.61 -32.14,12.61 -25.62,0 -40.67,-16.68 -40.67,-38.24 0,-21.69 15.18,-38.64 39.45,-38.64 15.87,0 27.53,7.46 32.82,18.98l9.22 -5.29c-7.19,-14.51 -22.65,-24 -42.45,-24 -30.5,0 -49.89,22.11 -49.89,49.22 0,26.31 18.85,48.41 51.66,48.41 16.68,0 30.91,-5.83 42.03,-17.63l0 -23.73 0 -9.9 -40.68 0zm197.66 -45.01l0 94.91 10.85 0 0 -94.91 -10.85 0zm215.15 0l-9.77 0 -44.2 93.96 0 0.95 11.26 0 10.3 -22.23 55.19 0 10.3 22.23 11.26 0 0 -0.95 -44.34 -93.96zm-27.66 62.24l22.77 -49.09 22.78 49.09 -45.55 0z"/>
  </g>
 </g>
</svg>
